<?xml version="1.0" encoding="utf-8"?>
<!-- Generator: Adobe Illustrator 28.3.0, SVG Export Plug-In . SVG Version: 6.00 Build 0)  -->
<svg version="1.1" id="Layer_1" xmlns="http://www.w3.org/2000/svg" xmlns:xlink="http://www.w3.org/1999/xlink" x="0px" y="0px"
	 viewBox="0 0 34 34" style="enable-background:new 0 0 34 34;" xml:space="preserve">
<style type="text/css">
	.st0{fill-rule:evenodd;clip-rule:evenodd;fill:#FFFFFF;}
</style>
<path class="st0" d="M12.5,6.1C13.6,6,14,6,17,6c3,0,3.4,0,4.5,0.1c1.2,0.1,2,0.2,2.7,0.5c0.7,0.3,1.4,0.7,1.9,1.3
	c0.6,0.5,1,1.2,1.3,1.9c0.3,0.7,0.5,1.5,0.5,2.7C28,13.6,28,14,28,17c0,3,0,3.4-0.1,4.5c-0.1,1.2-0.2,2-0.5,2.7
	c-0.3,0.7-0.7,1.3-1.3,1.9c-0.5,0.6-1.2,1-1.9,1.3c-0.7,0.3-1.5,0.5-2.7,0.5C20.4,28,20,28,17,28c-3,0-3.4,0-4.5-0.1
	c-1.2-0.1-2-0.2-2.7-0.5c-0.7-0.3-1.3-0.7-1.9-1.3c-0.6-0.5-1-1.2-1.3-1.9c-0.3-0.7-0.5-1.5-0.5-2.7C6,20.4,6,20,6,17
	c0-3,0-3.4,0.1-4.5c0.1-1.2,0.2-2,0.5-2.7c0.3-0.7,0.7-1.4,1.3-1.9c0.5-0.6,1.2-1,1.9-1.3C10.5,6.3,11.3,6.1,12.5,6.1z M21.4,8
	C20.3,8,19.9,8,17,8S13.7,8,12.6,8c-1.1,0-1.7,0.2-2,0.4C10,8.6,9.6,8.9,9.2,9.2C8.9,9.6,8.6,10,8.4,10.5c-0.2,0.4-0.3,1-0.4,2
	C8,13.7,8,14.1,8,17s0,3.3,0.1,4.4c0,1.1,0.2,1.7,0.4,2c0.2,0.5,0.5,0.9,0.8,1.3c0.4,0.4,0.8,0.6,1.3,0.8c0.4,0.2,1,0.3,2,0.4
	C13.7,26,14.1,26,17,26c2.9,0,3.3,0,4.4-0.1c1.1,0,1.7-0.2,2-0.4c0.5-0.2,0.9-0.4,1.3-0.8c0.4-0.4,0.6-0.8,0.8-1.3
	c0.2-0.4,0.3-1,0.4-2C26,20.3,26,19.9,26,17s0-3.3-0.1-4.4c0-1.1-0.2-1.7-0.4-2c-0.2-0.5-0.4-0.9-0.8-1.3c-0.4-0.4-0.8-0.6-1.3-0.8
	C23.1,8.3,22.5,8.1,21.4,8z M15.6,20.4c0.4,0.2,0.9,0.3,1.4,0.3c1,0,1.9-0.4,2.6-1.1c0.7-0.7,1.1-1.6,1.1-2.6s-0.4-1.9-1.1-2.6
	c-0.7-0.7-1.6-1.1-2.6-1.1c-0.5,0-1,0.1-1.4,0.3c-0.4,0.2-0.8,0.5-1.2,0.8c-0.3,0.3-0.6,0.7-0.8,1.2s-0.3,0.9-0.3,1.4s0.1,1,0.3,1.4
	s0.5,0.8,0.8,1.2S15.2,20.2,15.6,20.4z M13,13c1.1-1.1,2.5-1.7,4-1.7c1.5,0,2.9,0.6,4,1.7c1.1,1.1,1.7,2.5,1.7,4s-0.6,2.9-1.7,4
	c-1.1,1.1-2.5,1.7-4,1.7c-1.5,0-2.9-0.6-4-1.7c-1.1-1.1-1.7-2.5-1.7-4S11.9,14.1,13,13z M23.9,12.2c0.3-0.3,0.4-0.6,0.4-0.9
	c0-0.4-0.1-0.7-0.4-0.9C23.7,10,23.3,9.9,23,9.9c-0.4,0-0.7,0.1-0.9,0.4c-0.3,0.3-0.4,0.6-0.4,0.9c0,0.4,0.1,0.7,0.4,0.9
	c0.3,0.3,0.6,0.4,0.9,0.4C23.3,12.6,23.7,12.4,23.9,12.2z"/>
</svg>
